<?xml version="1.0" encoding="UTF-8"?>
<svg id="Camada_2" data-name="Camada 2" xmlns="http://www.w3.org/2000/svg" xmlns:xlink="http://www.w3.org/1999/xlink" viewBox="0 0 32 32">
  <defs>
    <style>
      .cls-1 {
        fill: #ae3f38;
      }

      .cls-2 {
        fill: #d44a35;
      }

      .cls-3 {
        fill: #9b3a3a;
      }

      .cls-4 {
        fill: #df4d34;
      }

      .cls-5 {
        fill: #712e3d;
      }

      .cls-6 {
        fill: #e24e34;
      }

      .cls-7 {
        fill: #e34e34;
      }

      .cls-8 {
        fill: #a13c39;
      }

      .cls-9 {
        fill: #92383a;
      }

      .cls-10 {
        fill: #c64636;
      }

      .cls-11 {
        fill: #bb4337;
      }

      .cls-12 {
        fill: #c24537;
      }

      .cls-13 {
        fill: #87343b;
      }

      .cls-14 {
        fill: #93383a;
      }

      .cls-15 {
        fill: #c04437;
      }

      .cls-16 {
        fill: #a03b39;
      }

      .cls-17 {
        fill: #84343b;
      }

      .cls-18 {
        fill: #742f3d;
      }

      .cls-19 {
        fill: #77303c;
      }

      .cls-20 {
        fill: #81333c;
      }

      .cls-21 {
        fill: #8e363b;
      }

      .cls-22 {
        fill: #ca4736;
      }

      .cls-23 {
        fill: #7c313c;
      }

      .cls-24 {
        fill: #78303c;
      }

      .cls-25 {
        fill: #83333c;
      }

      .cls-26 {
        fill: #8c363b;
      }

      .cls-27 {
        fill: #b24038;
      }

      .cls-28 {
        fill: #cc4836;
      }

      .cls-29 {
        fill: #d04936;
      }

      .cls-30 {
        fill: #b14038;
      }

      .cls-31 {
        clip-path: url(#clippath-2);
      }

      .cls-32 {
        fill: #ab3e38;
      }

      .cls-33 {
        fill: #9f3b39;
      }

      .cls-34 {
        fill: #faedf2;
      }

      .cls-35 {
        fill: #96393a;
      }

      .cls-36 {
        fill: #be4437;
      }

      .cls-37 {
        fill: #a53d39;
      }

      .cls-38 {
        fill: #a63d39;
      }

      .cls-39 {
        fill: #d34a35;
      }

      .cls-40 {
        fill: #79313c;
      }

      .cls-41 {
        fill: #c54636;
      }

      .cls-42 {
        fill: #b44138;
      }

      .cls-43 {
        fill: #722f3d;
      }

      .cls-44 {
        fill: #b04038;
      }

      .cls-45 {
        fill: #b94237;
      }

      .cls-46 {
        fill: #86343b;
      }

      .cls-47 {
        fill: #c14437;
      }

      .cls-48 {
        fill: #bc4337;
      }

      .cls-49 {
        fill: #d74b35;
      }

      .cls-50 {
        fill: #8d363b;
      }

      .cls-51 {
        fill: #91373a;
      }

      .cls-52 {
        clip-path: url(#clippath-1);
      }

      .cls-53 {
        clip-path: url(#clippath-4);
      }

      .cls-54 {
        fill: #b64138;
      }

      .cls-55 {
        fill: #97393a;
      }

      .cls-56 {
        fill: #89353b;
      }

      .cls-57 {
        fill: #e04d34;
      }

      .cls-58 {
        fill: #de4d34;
      }

      .cls-59 {
        fill: #8f373b;
      }

      .cls-60 {
        fill: #80323c;
      }

      .cls-61 {
        fill: #bf4437;
      }

      .cls-62 {
        fill: #dd4c34;
      }

      .cls-63 {
        fill: #a73d39;
      }

      .cls-64 {
        fill: #cb4736;
      }

      .cls-65 {
        fill: #bd4337;
      }

      .cls-66 {
        fill: #9a3a3a;
      }

      .cls-67 {
        fill: #b34138;
      }

      .cls-68 {
        fill: #d14935;
      }

      .cls-69 {
        fill: #cd4836;
      }

      .cls-70 {
        fill: #702e3d;
      }

      .cls-71 {
        fill: #d64a35;
      }

      .cls-72 {
        fill: #c74636;
      }

      .cls-73 {
        fill: #da4b35;
      }

      .cls-74 {
        fill: #7a313c;
      }

      .cls-75 {
        fill: #e14d34;
      }

      .cls-76 {
        fill: #d94b35;
      }

      .cls-77 {
        fill: #993a3a;
      }

      .cls-78 {
        clip-path: url(#clippath);
      }

      .cls-79 {
        fill: #a23c39;
      }

      .cls-80 {
        fill: #a43d39;
      }

      .cls-81 {
        fill: #d24935;
      }

      .cls-82 {
        fill: none;
      }

      .cls-83 {
        fill: #b54138;
      }

      .cls-84 {
        fill: #9c3a3a;
      }

      .cls-85 {
        clip-path: url(#clippath-3);
      }

      .cls-86 {
        fill: #cf4836;
      }

      .cls-87 {
        fill: #ad3f38;
      }

      .cls-88 {
        fill: #d54a35;
      }

      .cls-89 {
        fill: #95383a;
      }

      .cls-90 {
        fill: #dc4c35;
      }

      .cls-91 {
        fill: #ce4836;
      }

      .cls-92 {
        fill: #94383a;
      }

      .cls-93 {
        fill: #98393a;
      }

      .cls-94 {
        fill: #8a353b;
      }

      .cls-95 {
        fill: #9e3b39;
      }

      .cls-96 {
        fill: #732f3d;
      }

      .cls-97 {
        fill: #c94736;
      }

      .cls-98 {
        fill: #aa3e39;
      }

      .cls-99 {
        fill: #c34537;
      }

      .cls-100 {
        fill: #76303d;
      }

      .cls-101 {
        fill: #82333c;
      }

      .cls-102 {
        fill: #b84237;
      }

      .cls-103 {
        clip-path: url(#clippath-5);
      }

      .cls-104 {
        fill: #a83e39;
      }

      .cls-105 {
        fill: #b74237;
      }

      .cls-106 {
        fill: #d84b35;
      }

      .cls-107 {
        fill: #8b363b;
      }

      .cls-108 {
        fill: #c84636;
      }

      .cls-109 {
        fill: #85343b;
      }

      .cls-110 {
        fill: #db4c35;
      }

      .cls-111 {
        fill: #752f3d;
      }

      .cls-112 {
        fill: #7d323c;
      }

      .cls-113 {
        fill: #c44536;
      }

      .cls-114 {
        fill: #af3f38;
      }

      .cls-115 {
        fill: #90373a;
      }

      .cls-116 {
        fill: #ba4237;
      }

      .cls-117 {
        fill: #9d3b39;
      }

      .cls-118 {
        fill: #a33c39;
      }

      .cls-119 {
        fill: #7e323c;
      }

      .cls-120 {
        fill: #88353b;
      }

      .cls-121 {
        fill: #7b313c;
      }

      .cls-122 {
        fill: #7f323c;
      }

      .cls-123 {
        fill: #ac3f38;
      }
    </style>
    <clipPath id="clippath">
      <path class="cls-82" d="m25.03,21.3c-2.86,1.88-7.31,0-7.31,0-4.29-1.62-5.79-5.98-5.97-6.56-.75.47-1.46,1.08-2.07,1.7,1.05,3.21,4.91,5.92,4.91,5.92-2.6,1.69-5.42,1.47-5.42,1.47-.66-.37-1.57-1.65-1.96-2.23l-2.33,1.13c2.28,3.76,6.4,6.28,11.12,6.28s8.86-2.53,11.14-6.31l-2.11-1.39Zm-12.43,4.56c1.54,0,4.59-2.3,4.59-2.3,1.92,1.02,4.9.9,4.9.9-4.9,3.8-9.49,1.39-9.49,1.39Z"/>
    </clipPath>
    <clipPath id="clippath-1">
      <rect class="cls-82" x="2.4" y="2.4" width="27.2" height="27.2"/>
    </clipPath>
    <clipPath id="clippath-2">
      <path class="cls-82" d="m27.54,10.01c-.06-.12-.13-.25-.19-.37-2.19-3.9-6.32-6.55-11.08-6.65,0,0,0,0,0,0l-.11,2.53c3.08,1.49,3.75,6.27,3.75,6.27.79,4.41-2.04,7.88-2.54,8.45.78.38,1.65.67,2.55.86,2.15-2.57,2.49-7.16,2.49-7.16,2.79,1.36,4.04,3.9,4.04,3.9.02.74-.59,2.13-.89,2.78l2,1.32c.92-1.79,1.45-3.81,1.45-5.95s-.53-4.19-1.46-5.98Zm-5.44,1.08c-.11-2.17-1.74-4.67-1.74-4.67,5.78,2.25,6.06,7.43,6.06,7.43-.79-1.33-4.33-2.77-4.33-2.77Z"/>
    </clipPath>
    <clipPath id="clippath-3">
      <rect class="cls-82" x="2.4" y="2.4" width="27.2" height="27.2"/>
    </clipPath>
    <clipPath id="clippath-4">
      <path class="cls-82" d="m18.83,10.22c-3.22-.8-7.66,1.18-7.66,1.18-.13-3.1,1.52-5.41,1.52-5.41.59-.34,1.86-.47,2.64-.52l.11-2.46c-2.84.12-5.44,1.14-7.52,2.8-.14.11-.27.22-.4.33-.21.18-.42.36-.61.56-.07.07-.13.13-.2.2-2.3,2.35-3.71,5.55-3.71,9.09,0,2.17.54,4.21,1.48,6.01l2.27-1.09c-.15-3.42,3.74-6.28,3.74-6.28,3.84-3.06,8.76-1.75,8.76-1.75.03-.76-.3-2.41-.41-2.65Zm-10.03,2.79c-1.86,1.13-3.28,3.74-3.28,3.74-.76-6.15,3.66-8.87,3.66-8.87-.79,1.33-.38,5.12-.38,5.12Z"/>
    </clipPath>
    <clipPath id="clippath-5">
      <rect class="cls-82" x="2.4" y="2.4" width="27.2" height="27.2"/>
    </clipPath>
  </defs>
  <g id="Camada_1-2" data-name="Camada 1">
    <rect class="cls-34" x="0" y="0" width="32" height="32" rx="16" ry="16"/>
    <g>
      <g class="cls-78">
        <g class="cls-52">
          <path class="cls-70" d="m2.87,2.4l-.47.47.47-.47Z"/>
          <polygon class="cls-5" points="3.35 2.4 2.4 3.35 2.4 2.87 2.87 2.4 3.35 2.4"/>
          <polygon class="cls-43" points="3.82 2.4 2.4 3.82 2.4 3.35 3.35 2.4 3.82 2.4"/>
          <polygon class="cls-96" points="4.29 2.4 2.4 4.29 2.4 3.82 3.82 2.4 4.29 2.4"/>
          <polygon class="cls-18" points="4.76 2.4 2.4 4.76 2.4 4.29 4.29 2.4 4.76 2.4"/>
          <polygon class="cls-111" points="5.24 2.4 2.4 5.24 2.4 4.76 4.76 2.4 5.24 2.4"/>
          <polygon class="cls-100" points="5.71 2.4 2.4 5.71 2.4 5.24 5.24 2.4 5.71 2.4"/>
          <polygon class="cls-19" points="6.18 2.4 2.4 6.18 2.4 5.71 5.71 2.4 6.18 2.4"/>
          <polygon class="cls-24" points="6.66 2.4 2.4 6.66 2.4 6.18 6.18 2.4 6.66 2.4"/>
          <polygon class="cls-40" points="7.13 2.4 2.4 7.13 2.4 6.66 6.66 2.4 7.13 2.4"/>
          <polygon class="cls-74" points="7.6 2.4 2.4 7.6 2.4 7.13 7.13 2.4 7.6 2.4"/>
          <polygon class="cls-121" points="8.08 2.4 2.4 8.08 2.4 7.6 7.6 2.4 8.08 2.4"/>
          <polygon class="cls-23" points="8.55 2.4 2.4 8.55 2.4 8.08 8.08 2.4 8.55 2.4"/>
          <polygon class="cls-112" points="9.02 2.4 2.4 9.02 2.4 8.55 8.55 2.4 9.02 2.4"/>
          <polygon class="cls-119" points="9.5 2.4 2.4 9.5 2.4 9.02 9.02 2.4 9.5 2.4"/>
          <polygon class="cls-122" points="9.97 2.4 2.4 9.97 2.4 9.5 9.5 2.4 9.97 2.4"/>
          <polygon class="cls-60" points="10.44 2.4 2.4 10.44 2.4 9.97 9.97 2.4 10.44 2.4"/>
          <polygon class="cls-20" points="10.91 2.4 2.4 10.91 2.4 10.44 10.44 2.4 10.91 2.4"/>
          <polygon class="cls-101" points="11.39 2.4 2.4 11.39 2.4 10.91 10.91 2.4 11.39 2.4"/>
          <polygon class="cls-25" points="11.86 2.4 2.4 11.86 2.4 11.39 11.39 2.4 11.86 2.4"/>
          <polygon class="cls-17" points="12.33 2.4 2.4 12.33 2.4 11.86 11.86 2.4 12.33 2.4"/>
          <polygon class="cls-109" points="12.81 2.4 2.4 12.81 2.4 12.33 12.33 2.4 12.81 2.4"/>
          <polygon class="cls-46" points="13.28 2.4 2.4 13.28 2.4 12.81 12.81 2.4 13.28 2.4"/>
          <polygon class="cls-13" points="13.75 2.4 2.4 13.75 2.4 13.28 13.28 2.4 13.75 2.4"/>
          <polygon class="cls-120" points="14.23 2.4 2.4 14.23 2.4 13.75 13.75 2.4 14.23 2.4"/>
          <polygon class="cls-56" points="14.7 2.4 2.4 14.7 2.4 14.23 14.23 2.4 14.7 2.4"/>
          <polygon class="cls-94" points="15.17 2.4 2.4 15.17 2.4 14.7 14.7 2.4 15.17 2.4"/>
          <polygon class="cls-107" points="15.65 2.4 2.4 15.65 2.4 15.17 15.17 2.4 15.65 2.4"/>
          <polygon class="cls-26" points="16.12 2.4 2.4 16.12 2.4 15.65 15.65 2.4 16.12 2.4"/>
          <polygon class="cls-50" points="16.59 2.4 2.4 16.59 2.4 16.12 16.12 2.4 16.59 2.4"/>
          <polygon class="cls-21" points="17.06 2.4 2.4 17.06 2.4 16.59 16.59 2.4 17.06 2.4"/>
          <polygon class="cls-59" points="17.54 2.4 2.4 17.54 2.4 17.06 17.06 2.4 17.54 2.4"/>
          <polygon class="cls-115" points="18.01 2.4 2.4 18.01 2.4 17.54 17.54 2.4 18.01 2.4"/>
          <polygon class="cls-51" points="18.48 2.4 2.4 18.48 2.4 18.01 18.01 2.4 18.48 2.4"/>
          <polygon class="cls-9" points="18.96 2.4 2.4 18.96 2.4 18.48 18.48 2.4 18.96 2.4"/>
          <polygon class="cls-14" points="19.43 2.4 2.4 19.43 2.4 18.96 18.96 2.4 19.43 2.4"/>
          <polygon class="cls-92" points="19.9 2.4 2.4 19.9 2.4 19.43 19.43 2.4 19.9 2.4"/>
          <polygon class="cls-89" points="20.38 2.4 2.4 20.38 2.4 19.9 19.9 2.4 20.38 2.4"/>
          <polygon class="cls-35" points="20.85 2.4 2.4 20.85 2.4 20.38 20.38 2.4 20.85 2.4"/>
          <polygon class="cls-55" points="21.32 2.4 2.4 21.32 2.4 20.85 20.85 2.4 21.32 2.4"/>
          <polygon class="cls-93" points="21.79 2.4 2.4 21.79 2.4 21.32 21.32 2.4 21.79 2.4"/>
          <polygon class="cls-77" points="22.27 2.4 2.4 22.27 2.4 21.79 21.79 2.4 22.27 2.4"/>
          <polygon class="cls-66" points="22.74 2.4 2.4 22.74 2.4 22.27 22.27 2.4 22.74 2.4"/>
          <polygon class="cls-3" points="23.21 2.4 2.4 23.21 2.4 22.74 22.74 2.4 23.21 2.4"/>
          <polygon class="cls-84" points="23.69 2.4 2.4 23.69 2.4 23.21 23.21 2.4 23.69 2.4"/>
          <polygon class="cls-117" points="24.16 2.4 2.4 24.16 2.4 23.69 23.69 2.4 24.16 2.4"/>
          <polygon class="cls-95" points="24.63 2.4 2.4 24.63 2.4 24.16 24.16 2.4 24.63 2.4"/>
          <polygon class="cls-33" points="25.11 2.4 2.4 25.11 2.4 24.63 24.63 2.4 25.11 2.4"/>
          <polygon class="cls-16" points="25.58 2.4 2.4 25.58 2.4 25.11 25.11 2.4 25.58 2.4"/>
          <polygon class="cls-8" points="26.05 2.4 2.4 26.05 2.4 25.58 25.58 2.4 26.05 2.4"/>
          <polygon class="cls-79" points="26.53 2.4 2.4 26.53 2.4 26.05 26.05 2.4 26.53 2.4"/>
          <polygon class="cls-118" points="27 2.4 2.4 27 2.4 26.53 26.53 2.4 27 2.4"/>
          <polygon class="cls-80" points="27.47 2.4 2.4 27.47 2.4 27 27 2.4 27.47 2.4"/>
          <polygon class="cls-37" points="27.94 2.4 2.4 27.94 2.4 27.47 27.47 2.4 27.94 2.4"/>
          <polygon class="cls-38" points="28.42 2.4 2.4 28.42 2.4 27.94 27.94 2.4 28.42 2.4"/>
          <polygon class="cls-63" points="28.89 2.4 2.4 28.89 2.4 28.42 28.42 2.4 28.89 2.4"/>
          <polygon class="cls-104" points="29.36 2.4 2.4 29.36 2.4 28.89 28.89 2.4 29.36 2.4"/>
          <polygon class="cls-98" points="29.6 2.64 2.64 29.6 2.4 29.6 2.4 29.36 29.36 2.4 29.6 2.4 29.6 2.64"/>
          <polygon class="cls-32" points="29.6 3.11 3.11 29.6 2.64 29.6 29.6 2.64 29.6 3.11"/>
          <polygon class="cls-123" points="29.6 3.58 3.58 29.6 3.11 29.6 29.6 3.11 29.6 3.58"/>
          <polygon class="cls-87" points="29.6 4.06 4.06 29.6 3.58 29.6 29.6 3.58 29.6 4.06"/>
          <polygon class="cls-1" points="29.6 4.53 4.53 29.6 4.06 29.6 29.6 4.06 29.6 4.53"/>
          <polygon class="cls-114" points="29.6 5 5 29.6 4.53 29.6 29.6 4.53 29.6 5"/>
          <polygon class="cls-44" points="29.6 5.47 5.47 29.6 5 29.6 29.6 5 29.6 5.47"/>
          <polygon class="cls-30" points="29.6 5.95 5.95 29.6 5.47 29.6 29.6 5.47 29.6 5.95"/>
          <polygon class="cls-27" points="29.6 6.42 6.42 29.6 5.95 29.6 29.6 5.95 29.6 6.42"/>
          <polygon class="cls-67" points="29.6 6.89 6.89 29.6 6.42 29.6 29.6 6.42 29.6 6.89"/>
          <polygon class="cls-42" points="29.6 7.37 7.37 29.6 6.89 29.6 29.6 6.89 29.6 7.37"/>
          <polygon class="cls-83" points="29.6 7.84 7.84 29.6 7.37 29.6 29.6 7.37 29.6 7.84"/>
          <polygon class="cls-54" points="29.6 8.31 8.31 29.6 7.84 29.6 29.6 7.84 29.6 8.31"/>
          <polygon class="cls-105" points="29.6 8.79 8.79 29.6 8.31 29.6 29.6 8.31 29.6 8.79"/>
          <polygon class="cls-102" points="29.6 9.26 9.26 29.6 8.79 29.6 29.6 8.79 29.6 9.26"/>
          <polygon class="cls-45" points="29.6 9.73 9.73 29.6 9.26 29.6 29.6 9.26 29.6 9.73"/>
          <polygon class="cls-116" points="29.6 10.21 10.21 29.6 9.73 29.6 29.6 9.73 29.6 10.21"/>
          <polygon class="cls-11" points="29.6 10.68 10.68 29.6 10.21 29.6 29.6 10.21 29.6 10.68"/>
          <polygon class="cls-48" points="29.6 11.15 11.15 29.6 10.68 29.6 29.6 10.68 29.6 11.15"/>
          <polygon class="cls-65" points="29.6 11.62 11.62 29.6 11.15 29.6 29.6 11.15 29.6 11.62"/>
          <polygon class="cls-36" points="29.6 12.1 12.1 29.6 11.62 29.6 29.6 11.62 29.6 12.1"/>
          <polygon class="cls-61" points="29.6 12.57 12.57 29.6 12.1 29.6 29.6 12.1 29.6 12.57"/>
          <polygon class="cls-15" points="29.6 13.04 13.04 29.6 12.57 29.6 29.6 12.57 29.6 13.04"/>
          <polygon class="cls-47" points="29.6 13.52 13.52 29.6 13.04 29.6 29.6 13.04 29.6 13.52"/>
          <polygon class="cls-12" points="29.6 13.99 13.99 29.6 13.52 29.6 29.6 13.52 29.6 13.99"/>
          <polygon class="cls-99" points="29.6 14.46 14.46 29.6 13.99 29.6 29.6 13.99 29.6 14.46"/>
          <polygon class="cls-113" points="29.6 14.94 14.94 29.6 14.46 29.6 29.6 14.46 29.6 14.94"/>
          <polygon class="cls-41" points="29.6 15.41 15.41 29.6 14.94 29.6 29.6 14.94 29.6 15.41"/>
          <polygon class="cls-10" points="29.6 15.88 15.88 29.6 15.41 29.6 29.6 15.41 29.6 15.88"/>
          <polygon class="cls-72" points="29.6 16.35 16.35 29.6 15.88 29.6 29.6 15.88 29.6 16.35"/>
          <polygon class="cls-108" points="29.6 16.83 16.83 29.6 16.35 29.6 29.6 16.35 29.6 16.83"/>
          <polygon class="cls-97" points="29.6 17.3 17.3 29.6 16.83 29.6 29.6 16.83 29.6 17.3"/>
          <polygon class="cls-22" points="29.6 17.77 17.77 29.6 17.3 29.6 29.6 17.3 29.6 17.77"/>
          <polygon class="cls-64" points="29.6 18.25 18.25 29.6 17.77 29.6 29.6 17.77 29.6 18.25"/>
          <polygon class="cls-28" points="29.6 18.72 18.72 29.6 18.25 29.6 29.6 18.25 29.6 18.72"/>
          <polygon class="cls-69" points="29.6 19.19 19.19 29.6 18.72 29.6 29.6 18.72 29.6 19.19"/>
          <polygon class="cls-91" points="29.6 19.67 19.67 29.6 19.19 29.6 29.6 19.19 29.6 19.67"/>
          <polygon class="cls-86" points="29.6 20.14 20.14 29.6 19.67 29.6 29.6 19.67 29.6 20.14"/>
          <polygon class="cls-29" points="29.6 20.61 20.61 29.6 20.14 29.6 29.6 20.14 29.6 20.61"/>
          <polygon class="cls-68" points="29.6 21.09 21.09 29.6 20.61 29.6 29.6 20.61 29.6 21.09"/>
          <polygon class="cls-81" points="29.6 21.56 21.56 29.6 21.09 29.6 29.6 21.09 29.6 21.56"/>
          <polygon class="cls-39" points="29.6 22.03 22.03 29.6 21.56 29.6 29.6 21.56 29.6 22.03"/>
          <polygon class="cls-2" points="29.6 22.5 22.5 29.6 22.03 29.6 29.6 22.03 29.6 22.5"/>
          <polygon class="cls-88" points="29.6 22.98 22.98 29.6 22.5 29.6 29.6 22.5 29.6 22.98"/>
          <polygon class="cls-71" points="29.6 23.45 23.45 29.6 22.98 29.6 29.6 22.98 29.6 23.45"/>
          <polygon class="cls-49" points="29.6 23.92 23.92 29.6 23.45 29.6 29.6 23.45 29.6 23.92"/>
          <polygon class="cls-106" points="29.6 24.4 24.4 29.6 23.92 29.6 29.6 23.92 29.6 24.4"/>
          <polygon class="cls-76" points="29.6 24.87 24.87 29.6 24.4 29.6 29.6 24.4 29.6 24.87"/>
          <polygon class="cls-73" points="29.6 25.34 25.34 29.6 24.87 29.6 29.6 24.87 29.6 25.34"/>
          <polygon class="cls-110" points="29.6 25.82 25.82 29.6 25.34 29.6 29.6 25.34 29.6 25.82"/>
          <polygon class="cls-90" points="29.6 26.29 26.29 29.6 25.82 29.6 29.6 25.82 29.6 26.29"/>
          <polygon class="cls-62" points="29.6 26.76 26.76 29.6 26.29 29.6 29.6 26.29 29.6 26.76"/>
          <polygon class="cls-58" points="29.6 27.24 27.24 29.6 26.76 29.6 29.6 26.76 29.6 27.24"/>
          <polygon class="cls-4" points="29.6 27.71 27.71 29.6 27.24 29.6 29.6 27.24 29.6 27.71"/>
          <polygon class="cls-57" points="29.6 28.18 28.18 29.6 27.71 29.6 29.6 27.71 29.6 28.18"/>
          <polygon class="cls-75" points="29.6 28.65 28.65 29.6 28.18 29.6 29.6 28.18 29.6 28.65"/>
          <polygon class="cls-6" points="29.6 29.13 29.13 29.6 28.65 29.6 29.6 28.65 29.6 29.13"/>
          <polygon class="cls-7" points="29.13 29.6 29.6 29.13 29.6 29.6 29.13 29.6"/>
        </g>
      </g>
      <g class="cls-31">
        <g class="cls-85">
          <path class="cls-70" d="m2.87,2.4l-.47.47.47-.47Z"/>
          <polygon class="cls-5" points="3.35 2.4 2.4 3.35 2.4 2.87 2.87 2.4 3.35 2.4"/>
          <polygon class="cls-43" points="3.82 2.4 2.4 3.82 2.4 3.35 3.35 2.4 3.82 2.4"/>
          <polygon class="cls-96" points="4.29 2.4 2.4 4.29 2.4 3.82 3.82 2.4 4.29 2.4"/>
          <polygon class="cls-18" points="4.76 2.4 2.4 4.76 2.4 4.29 4.29 2.4 4.76 2.4"/>
          <polygon class="cls-111" points="5.24 2.4 2.4 5.24 2.4 4.76 4.76 2.4 5.24 2.4"/>
          <polygon class="cls-100" points="5.71 2.4 2.4 5.71 2.4 5.24 5.24 2.4 5.71 2.4"/>
          <polygon class="cls-19" points="6.18 2.4 2.4 6.18 2.4 5.71 5.71 2.4 6.18 2.4"/>
          <polygon class="cls-24" points="6.66 2.4 2.4 6.66 2.4 6.18 6.18 2.4 6.66 2.4"/>
          <polygon class="cls-40" points="7.13 2.4 2.4 7.13 2.4 6.66 6.66 2.4 7.13 2.4"/>
          <polygon class="cls-74" points="7.6 2.4 2.4 7.6 2.4 7.13 7.13 2.4 7.6 2.4"/>
          <polygon class="cls-121" points="8.08 2.4 2.4 8.08 2.4 7.6 7.6 2.4 8.08 2.4"/>
          <polygon class="cls-23" points="8.55 2.4 2.4 8.55 2.4 8.08 8.08 2.4 8.55 2.4"/>
          <polygon class="cls-112" points="9.02 2.4 2.4 9.02 2.4 8.55 8.55 2.4 9.02 2.4"/>
          <polygon class="cls-119" points="9.5 2.4 2.4 9.5 2.4 9.02 9.02 2.4 9.5 2.4"/>
          <polygon class="cls-122" points="9.97 2.4 2.4 9.97 2.4 9.5 9.5 2.4 9.97 2.4"/>
          <polygon class="cls-60" points="10.44 2.4 2.4 10.44 2.4 9.97 9.97 2.4 10.44 2.4"/>
          <polygon class="cls-20" points="10.91 2.4 2.4 10.91 2.4 10.44 10.44 2.4 10.91 2.4"/>
          <polygon class="cls-101" points="11.39 2.4 2.4 11.39 2.4 10.91 10.91 2.4 11.39 2.4"/>
          <polygon class="cls-25" points="11.86 2.4 2.4 11.86 2.4 11.39 11.39 2.4 11.86 2.4"/>
          <polygon class="cls-17" points="12.33 2.4 2.4 12.33 2.4 11.86 11.86 2.4 12.33 2.4"/>
          <polygon class="cls-109" points="12.81 2.4 2.4 12.81 2.4 12.33 12.33 2.4 12.81 2.4"/>
          <polygon class="cls-46" points="13.28 2.4 2.4 13.28 2.4 12.81 12.81 2.4 13.28 2.4"/>
          <polygon class="cls-13" points="13.75 2.4 2.4 13.75 2.4 13.28 13.28 2.4 13.75 2.4"/>
          <polygon class="cls-120" points="14.23 2.4 2.4 14.23 2.4 13.75 13.75 2.4 14.23 2.4"/>
          <polygon class="cls-56" points="14.7 2.4 2.4 14.7 2.4 14.23 14.23 2.4 14.7 2.4"/>
          <polygon class="cls-94" points="15.17 2.4 2.4 15.17 2.4 14.7 14.7 2.4 15.17 2.4"/>
          <polygon class="cls-107" points="15.65 2.4 2.4 15.65 2.4 15.17 15.17 2.4 15.65 2.4"/>
          <polygon class="cls-26" points="16.12 2.4 2.4 16.12 2.4 15.65 15.65 2.4 16.12 2.4"/>
          <polygon class="cls-50" points="16.59 2.4 2.4 16.59 2.4 16.12 16.12 2.4 16.59 2.4"/>
          <polygon class="cls-21" points="17.06 2.4 2.4 17.06 2.4 16.59 16.59 2.4 17.06 2.4"/>
          <polygon class="cls-59" points="17.54 2.4 2.4 17.54 2.4 17.06 17.06 2.4 17.54 2.4"/>
          <polygon class="cls-115" points="18.01 2.4 2.4 18.01 2.4 17.54 17.54 2.4 18.01 2.4"/>
          <polygon class="cls-51" points="18.48 2.4 2.4 18.48 2.4 18.01 18.01 2.4 18.48 2.4"/>
          <polygon class="cls-9" points="18.96 2.4 2.4 18.96 2.4 18.48 18.48 2.4 18.96 2.4"/>
          <polygon class="cls-14" points="19.43 2.4 2.4 19.43 2.4 18.96 18.96 2.4 19.43 2.4"/>
          <polygon class="cls-92" points="19.9 2.4 2.4 19.9 2.4 19.43 19.43 2.4 19.9 2.4"/>
          <polygon class="cls-89" points="20.38 2.4 2.4 20.38 2.4 19.9 19.9 2.4 20.38 2.4"/>
          <polygon class="cls-35" points="20.85 2.4 2.4 20.85 2.4 20.38 20.38 2.4 20.85 2.4"/>
          <polygon class="cls-55" points="21.32 2.4 2.4 21.32 2.4 20.85 20.85 2.4 21.32 2.4"/>
          <polygon class="cls-93" points="21.79 2.4 2.4 21.79 2.4 21.32 21.32 2.4 21.79 2.4"/>
          <polygon class="cls-77" points="22.27 2.4 2.4 22.27 2.4 21.79 21.79 2.4 22.27 2.4"/>
          <polygon class="cls-66" points="22.74 2.4 2.4 22.74 2.4 22.27 22.27 2.4 22.74 2.4"/>
          <polygon class="cls-3" points="23.21 2.4 2.4 23.21 2.4 22.74 22.74 2.4 23.21 2.4"/>
          <polygon class="cls-84" points="23.69 2.4 2.4 23.69 2.4 23.21 23.21 2.4 23.69 2.4"/>
          <polygon class="cls-117" points="24.16 2.4 2.4 24.16 2.4 23.69 23.69 2.4 24.16 2.4"/>
          <polygon class="cls-95" points="24.63 2.4 2.4 24.63 2.4 24.16 24.16 2.4 24.63 2.4"/>
          <polygon class="cls-33" points="25.11 2.4 2.4 25.11 2.4 24.63 24.63 2.4 25.11 2.4"/>
          <polygon class="cls-16" points="25.58 2.4 2.4 25.58 2.4 25.11 25.11 2.4 25.58 2.4"/>
          <polygon class="cls-8" points="26.05 2.4 2.4 26.05 2.4 25.58 25.58 2.4 26.05 2.4"/>
          <polygon class="cls-79" points="26.53 2.4 2.4 26.53 2.4 26.05 26.05 2.4 26.53 2.4"/>
          <polygon class="cls-118" points="27 2.4 2.4 27 2.4 26.53 26.53 2.4 27 2.4"/>
          <polygon class="cls-80" points="27.47 2.4 2.4 27.47 2.4 27 27 2.4 27.47 2.4"/>
          <polygon class="cls-37" points="27.94 2.4 2.4 27.94 2.4 27.47 27.47 2.4 27.94 2.4"/>
          <polygon class="cls-38" points="28.42 2.4 2.4 28.42 2.4 27.94 27.94 2.4 28.42 2.4"/>
          <polygon class="cls-63" points="28.89 2.4 2.4 28.89 2.4 28.42 28.42 2.4 28.89 2.4"/>
          <polygon class="cls-104" points="29.36 2.4 2.4 29.36 2.4 28.89 28.89 2.4 29.36 2.4"/>
          <polygon class="cls-98" points="29.6 2.64 2.64 29.6 2.4 29.6 2.4 29.36 29.36 2.4 29.6 2.4 29.6 2.64"/>
          <polygon class="cls-32" points="29.6 3.11 3.11 29.6 2.64 29.6 29.6 2.64 29.6 3.11"/>
          <polygon class="cls-123" points="29.6 3.58 3.58 29.6 3.11 29.6 29.6 3.11 29.6 3.58"/>
          <polygon class="cls-87" points="29.6 4.06 4.06 29.6 3.58 29.6 29.6 3.58 29.6 4.06"/>
          <polygon class="cls-1" points="29.6 4.53 4.53 29.6 4.06 29.6 29.6 4.06 29.6 4.53"/>
          <polygon class="cls-114" points="29.6 5 5 29.6 4.53 29.6 29.6 4.53 29.6 5"/>
          <polygon class="cls-44" points="29.6 5.47 5.47 29.6 5 29.6 29.6 5 29.6 5.47"/>
          <polygon class="cls-30" points="29.6 5.95 5.95 29.6 5.47 29.6 29.6 5.47 29.6 5.95"/>
          <polygon class="cls-27" points="29.6 6.42 6.42 29.6 5.95 29.6 29.6 5.95 29.6 6.42"/>
          <polygon class="cls-67" points="29.6 6.89 6.89 29.6 6.42 29.6 29.6 6.42 29.6 6.89"/>
          <polygon class="cls-42" points="29.6 7.37 7.37 29.6 6.89 29.6 29.6 6.89 29.6 7.37"/>
          <polygon class="cls-83" points="29.6 7.84 7.84 29.6 7.37 29.6 29.6 7.37 29.6 7.84"/>
          <polygon class="cls-54" points="29.6 8.31 8.31 29.6 7.84 29.6 29.6 7.84 29.6 8.31"/>
          <polygon class="cls-105" points="29.6 8.79 8.79 29.6 8.31 29.6 29.6 8.31 29.6 8.79"/>
          <polygon class="cls-102" points="29.6 9.26 9.26 29.6 8.79 29.6 29.6 8.79 29.6 9.26"/>
          <polygon class="cls-45" points="29.6 9.73 9.73 29.6 9.26 29.6 29.6 9.26 29.6 9.73"/>
          <polygon class="cls-116" points="29.6 10.21 10.21 29.6 9.73 29.6 29.6 9.73 29.6 10.21"/>
          <polygon class="cls-11" points="29.6 10.68 10.68 29.6 10.21 29.6 29.6 10.21 29.6 10.68"/>
          <polygon class="cls-48" points="29.6 11.15 11.15 29.6 10.68 29.6 29.6 10.68 29.6 11.15"/>
          <polygon class="cls-65" points="29.6 11.62 11.62 29.6 11.15 29.6 29.6 11.15 29.6 11.62"/>
          <polygon class="cls-36" points="29.6 12.1 12.1 29.6 11.62 29.6 29.6 11.62 29.6 12.1"/>
          <polygon class="cls-61" points="29.6 12.57 12.57 29.6 12.1 29.6 29.6 12.1 29.6 12.57"/>
          <polygon class="cls-15" points="29.6 13.04 13.04 29.6 12.57 29.6 29.6 12.57 29.6 13.04"/>
          <polygon class="cls-47" points="29.6 13.52 13.52 29.6 13.04 29.6 29.6 13.04 29.6 13.52"/>
          <polygon class="cls-12" points="29.6 13.99 13.99 29.6 13.52 29.6 29.6 13.52 29.6 13.99"/>
          <polygon class="cls-99" points="29.6 14.46 14.46 29.6 13.99 29.6 29.6 13.99 29.6 14.46"/>
          <polygon class="cls-113" points="29.6 14.94 14.94 29.6 14.46 29.6 29.6 14.46 29.6 14.94"/>
          <polygon class="cls-41" points="29.6 15.41 15.41 29.6 14.94 29.6 29.6 14.94 29.6 15.41"/>
          <polygon class="cls-10" points="29.6 15.88 15.88 29.6 15.41 29.6 29.6 15.41 29.6 15.88"/>
          <polygon class="cls-72" points="29.6 16.35 16.35 29.6 15.88 29.6 29.6 15.88 29.6 16.35"/>
          <polygon class="cls-108" points="29.6 16.83 16.83 29.6 16.35 29.6 29.6 16.35 29.6 16.83"/>
          <polygon class="cls-97" points="29.6 17.3 17.3 29.6 16.83 29.6 29.6 16.83 29.6 17.3"/>
          <polygon class="cls-22" points="29.6 17.77 17.77 29.6 17.3 29.6 29.6 17.3 29.6 17.77"/>
          <polygon class="cls-64" points="29.6 18.25 18.25 29.6 17.77 29.6 29.6 17.77 29.6 18.25"/>
          <polygon class="cls-28" points="29.6 18.72 18.72 29.6 18.25 29.6 29.6 18.25 29.6 18.72"/>
          <polygon class="cls-69" points="29.6 19.19 19.19 29.6 18.72 29.6 29.6 18.72 29.6 19.19"/>
          <polygon class="cls-91" points="29.6 19.67 19.67 29.6 19.19 29.6 29.6 19.19 29.6 19.67"/>
          <polygon class="cls-86" points="29.6 20.14 20.14 29.6 19.67 29.6 29.6 19.67 29.6 20.14"/>
          <polygon class="cls-29" points="29.6 20.61 20.61 29.6 20.14 29.6 29.6 20.14 29.6 20.61"/>
          <polygon class="cls-68" points="29.6 21.09 21.09 29.6 20.61 29.6 29.6 20.61 29.6 21.09"/>
          <polygon class="cls-81" points="29.6 21.56 21.56 29.6 21.09 29.6 29.6 21.09 29.6 21.56"/>
          <polygon class="cls-39" points="29.6 22.03 22.03 29.6 21.56 29.6 29.6 21.56 29.6 22.03"/>
          <polygon class="cls-2" points="29.6 22.5 22.5 29.6 22.03 29.6 29.6 22.03 29.6 22.5"/>
          <polygon class="cls-88" points="29.6 22.98 22.98 29.6 22.5 29.6 29.6 22.5 29.6 22.98"/>
          <polygon class="cls-71" points="29.6 23.45 23.45 29.6 22.98 29.6 29.6 22.98 29.6 23.45"/>
          <polygon class="cls-49" points="29.6 23.92 23.92 29.6 23.45 29.6 29.6 23.45 29.6 23.92"/>
          <polygon class="cls-106" points="29.6 24.4 24.4 29.6 23.92 29.6 29.6 23.92 29.6 24.4"/>
          <polygon class="cls-76" points="29.6 24.87 24.87 29.6 24.4 29.6 29.6 24.4 29.6 24.87"/>
          <polygon class="cls-73" points="29.6 25.34 25.34 29.6 24.87 29.6 29.6 24.87 29.6 25.34"/>
          <polygon class="cls-110" points="29.6 25.82 25.82 29.6 25.34 29.6 29.6 25.34 29.6 25.82"/>
          <polygon class="cls-90" points="29.6 26.29 26.29 29.6 25.82 29.6 29.6 25.82 29.6 26.29"/>
          <polygon class="cls-62" points="29.6 26.76 26.76 29.6 26.29 29.6 29.6 26.29 29.6 26.76"/>
          <polygon class="cls-58" points="29.6 27.24 27.24 29.6 26.76 29.6 29.6 26.76 29.6 27.24"/>
          <polygon class="cls-4" points="29.6 27.71 27.71 29.6 27.24 29.6 29.6 27.24 29.6 27.71"/>
          <polygon class="cls-57" points="29.6 28.18 28.18 29.6 27.71 29.6 29.6 27.71 29.6 28.18"/>
          <polygon class="cls-75" points="29.6 28.65 28.65 29.6 28.18 29.6 29.6 28.18 29.6 28.65"/>
          <polygon class="cls-6" points="29.6 29.13 29.13 29.6 28.65 29.6 29.6 28.65 29.6 29.13"/>
          <polygon class="cls-7" points="29.13 29.6 29.6 29.13 29.6 29.6 29.13 29.6"/>
        </g>
      </g>
      <g class="cls-53">
        <g class="cls-103">
          <path class="cls-70" d="m2.87,2.4l-.47.47.47-.47Z"/>
          <polygon class="cls-5" points="3.35 2.4 2.4 3.35 2.4 2.87 2.87 2.4 3.35 2.4"/>
          <polygon class="cls-43" points="3.82 2.4 2.4 3.82 2.4 3.35 3.35 2.4 3.82 2.4"/>
          <polygon class="cls-96" points="4.29 2.4 2.4 4.29 2.4 3.82 3.82 2.4 4.29 2.4"/>
          <polygon class="cls-18" points="4.76 2.4 2.4 4.76 2.4 4.29 4.29 2.4 4.76 2.4"/>
          <polygon class="cls-111" points="5.24 2.4 2.4 5.24 2.4 4.76 4.76 2.4 5.24 2.4"/>
          <polygon class="cls-100" points="5.71 2.4 2.4 5.71 2.4 5.24 5.24 2.4 5.71 2.4"/>
          <polygon class="cls-19" points="6.18 2.4 2.4 6.18 2.4 5.71 5.71 2.4 6.18 2.4"/>
          <polygon class="cls-24" points="6.66 2.4 2.4 6.66 2.4 6.18 6.18 2.4 6.66 2.4"/>
          <polygon class="cls-40" points="7.13 2.4 2.4 7.13 2.4 6.66 6.66 2.4 7.13 2.4"/>
          <polygon class="cls-74" points="7.6 2.4 2.4 7.6 2.4 7.13 7.13 2.4 7.6 2.4"/>
          <polygon class="cls-121" points="8.08 2.4 2.4 8.08 2.4 7.6 7.6 2.4 8.08 2.4"/>
          <polygon class="cls-23" points="8.55 2.4 2.4 8.55 2.4 8.08 8.08 2.4 8.55 2.4"/>
          <polygon class="cls-112" points="9.02 2.4 2.4 9.02 2.4 8.55 8.55 2.4 9.02 2.4"/>
          <polygon class="cls-119" points="9.5 2.4 2.4 9.5 2.4 9.02 9.02 2.4 9.5 2.4"/>
          <polygon class="cls-122" points="9.97 2.4 2.4 9.97 2.4 9.5 9.5 2.4 9.97 2.4"/>
          <polygon class="cls-60" points="10.44 2.4 2.4 10.44 2.4 9.97 9.97 2.4 10.44 2.4"/>
          <polygon class="cls-20" points="10.91 2.4 2.4 10.91 2.4 10.44 10.44 2.4 10.91 2.4"/>
          <polygon class="cls-101" points="11.39 2.4 2.4 11.39 2.4 10.91 10.91 2.4 11.39 2.4"/>
          <polygon class="cls-25" points="11.86 2.4 2.4 11.86 2.4 11.39 11.39 2.4 11.86 2.4"/>
          <polygon class="cls-17" points="12.33 2.4 2.4 12.33 2.4 11.86 11.86 2.4 12.33 2.4"/>
          <polygon class="cls-109" points="12.81 2.4 2.4 12.81 2.4 12.33 12.33 2.4 12.81 2.4"/>
          <polygon class="cls-46" points="13.28 2.4 2.4 13.28 2.4 12.81 12.81 2.4 13.28 2.4"/>
          <polygon class="cls-13" points="13.75 2.4 2.4 13.75 2.4 13.28 13.28 2.4 13.75 2.4"/>
          <polygon class="cls-120" points="14.23 2.4 2.4 14.23 2.4 13.75 13.75 2.4 14.23 2.4"/>
          <polygon class="cls-56" points="14.7 2.4 2.4 14.7 2.4 14.23 14.23 2.4 14.7 2.4"/>
          <polygon class="cls-94" points="15.17 2.4 2.4 15.17 2.4 14.7 14.7 2.4 15.17 2.4"/>
          <polygon class="cls-107" points="15.65 2.4 2.4 15.65 2.4 15.17 15.17 2.4 15.65 2.4"/>
          <polygon class="cls-26" points="16.12 2.4 2.4 16.12 2.4 15.65 15.65 2.4 16.12 2.4"/>
          <polygon class="cls-50" points="16.59 2.4 2.4 16.59 2.4 16.12 16.12 2.4 16.59 2.4"/>
          <polygon class="cls-21" points="17.06 2.4 2.4 17.06 2.4 16.59 16.59 2.4 17.06 2.4"/>
          <polygon class="cls-59" points="17.54 2.4 2.4 17.54 2.4 17.06 17.06 2.4 17.54 2.4"/>
          <polygon class="cls-115" points="18.01 2.4 2.4 18.01 2.4 17.54 17.54 2.4 18.01 2.4"/>
          <polygon class="cls-51" points="18.48 2.4 2.4 18.48 2.4 18.01 18.01 2.4 18.48 2.4"/>
          <polygon class="cls-9" points="18.96 2.4 2.4 18.96 2.4 18.48 18.48 2.4 18.96 2.4"/>
          <polygon class="cls-14" points="19.43 2.4 2.4 19.43 2.4 18.96 18.96 2.4 19.43 2.4"/>
          <polygon class="cls-92" points="19.9 2.4 2.4 19.9 2.4 19.43 19.43 2.4 19.9 2.4"/>
          <polygon class="cls-89" points="20.38 2.4 2.4 20.38 2.4 19.9 19.9 2.4 20.38 2.4"/>
          <polygon class="cls-35" points="20.85 2.4 2.4 20.85 2.4 20.38 20.38 2.4 20.85 2.4"/>
          <polygon class="cls-55" points="21.32 2.4 2.4 21.32 2.4 20.85 20.85 2.4 21.32 2.4"/>
          <polygon class="cls-93" points="21.79 2.4 2.4 21.79 2.4 21.32 21.32 2.4 21.79 2.4"/>
          <polygon class="cls-77" points="22.27 2.4 2.4 22.27 2.4 21.79 21.79 2.4 22.27 2.4"/>
          <polygon class="cls-66" points="22.74 2.4 2.4 22.74 2.4 22.27 22.27 2.4 22.74 2.4"/>
          <polygon class="cls-3" points="23.21 2.4 2.4 23.21 2.4 22.74 22.74 2.4 23.21 2.4"/>
          <polygon class="cls-84" points="23.69 2.4 2.4 23.69 2.4 23.21 23.21 2.4 23.69 2.4"/>
          <polygon class="cls-117" points="24.16 2.4 2.4 24.16 2.4 23.69 23.69 2.4 24.16 2.4"/>
          <polygon class="cls-95" points="24.63 2.4 2.4 24.63 2.4 24.16 24.16 2.4 24.63 2.4"/>
          <polygon class="cls-33" points="25.11 2.4 2.4 25.11 2.4 24.63 24.63 2.4 25.11 2.4"/>
          <polygon class="cls-16" points="25.58 2.4 2.4 25.58 2.4 25.11 25.11 2.4 25.58 2.4"/>
          <polygon class="cls-8" points="26.05 2.4 2.4 26.05 2.4 25.58 25.58 2.4 26.05 2.4"/>
          <polygon class="cls-79" points="26.53 2.4 2.4 26.53 2.4 26.05 26.05 2.4 26.53 2.4"/>
          <polygon class="cls-118" points="27 2.4 2.4 27 2.4 26.53 26.53 2.4 27 2.4"/>
          <polygon class="cls-80" points="27.47 2.4 2.4 27.47 2.4 27 27 2.4 27.47 2.4"/>
          <polygon class="cls-37" points="27.94 2.4 2.4 27.94 2.4 27.47 27.47 2.4 27.94 2.4"/>
          <polygon class="cls-38" points="28.42 2.4 2.4 28.42 2.4 27.94 27.94 2.4 28.42 2.4"/>
          <polygon class="cls-63" points="28.89 2.4 2.4 28.89 2.4 28.42 28.42 2.4 28.89 2.4"/>
          <polygon class="cls-104" points="29.36 2.4 2.4 29.36 2.4 28.89 28.89 2.4 29.36 2.4"/>
          <polygon class="cls-98" points="29.6 2.64 2.64 29.6 2.4 29.6 2.4 29.36 29.36 2.4 29.6 2.4 29.6 2.64"/>
          <polygon class="cls-32" points="29.6 3.11 3.11 29.6 2.64 29.6 29.6 2.64 29.6 3.11"/>
          <polygon class="cls-123" points="29.6 3.58 3.58 29.6 3.11 29.6 29.6 3.11 29.6 3.58"/>
          <polygon class="cls-87" points="29.6 4.06 4.06 29.6 3.58 29.6 29.6 3.58 29.6 4.06"/>
          <polygon class="cls-1" points="29.6 4.53 4.53 29.6 4.06 29.6 29.6 4.06 29.6 4.53"/>
          <polygon class="cls-114" points="29.6 5 5 29.6 4.53 29.6 29.6 4.53 29.6 5"/>
          <polygon class="cls-44" points="29.6 5.47 5.47 29.6 5 29.6 29.6 5 29.6 5.47"/>
          <polygon class="cls-30" points="29.6 5.95 5.95 29.6 5.47 29.6 29.6 5.47 29.6 5.95"/>
          <polygon class="cls-27" points="29.6 6.42 6.42 29.6 5.95 29.6 29.6 5.95 29.6 6.42"/>
          <polygon class="cls-67" points="29.6 6.89 6.89 29.6 6.42 29.6 29.6 6.42 29.6 6.89"/>
          <polygon class="cls-42" points="29.6 7.37 7.37 29.6 6.89 29.6 29.6 6.89 29.6 7.37"/>
          <polygon class="cls-83" points="29.6 7.84 7.84 29.6 7.37 29.6 29.6 7.37 29.6 7.84"/>
          <polygon class="cls-54" points="29.6 8.31 8.31 29.6 7.84 29.6 29.6 7.84 29.6 8.31"/>
          <polygon class="cls-105" points="29.6 8.79 8.79 29.6 8.31 29.6 29.6 8.31 29.6 8.79"/>
          <polygon class="cls-102" points="29.6 9.26 9.26 29.6 8.79 29.6 29.6 8.79 29.6 9.26"/>
          <polygon class="cls-45" points="29.6 9.73 9.73 29.6 9.26 29.6 29.6 9.26 29.6 9.73"/>
          <polygon class="cls-116" points="29.6 10.21 10.21 29.6 9.73 29.6 29.6 9.73 29.6 10.21"/>
          <polygon class="cls-11" points="29.6 10.68 10.68 29.6 10.21 29.6 29.6 10.21 29.6 10.68"/>
          <polygon class="cls-48" points="29.6 11.15 11.15 29.6 10.68 29.6 29.6 10.68 29.6 11.15"/>
          <polygon class="cls-65" points="29.6 11.62 11.62 29.6 11.15 29.6 29.6 11.15 29.6 11.62"/>
          <polygon class="cls-36" points="29.6 12.1 12.1 29.6 11.62 29.6 29.6 11.62 29.6 12.1"/>
          <polygon class="cls-61" points="29.6 12.57 12.57 29.6 12.1 29.6 29.6 12.1 29.6 12.57"/>
          <polygon class="cls-15" points="29.6 13.04 13.04 29.6 12.57 29.6 29.6 12.57 29.6 13.04"/>
          <polygon class="cls-47" points="29.6 13.52 13.52 29.6 13.04 29.6 29.6 13.04 29.6 13.52"/>
          <polygon class="cls-12" points="29.6 13.99 13.99 29.6 13.52 29.6 29.6 13.52 29.6 13.99"/>
          <polygon class="cls-99" points="29.6 14.46 14.46 29.6 13.99 29.6 29.6 13.99 29.6 14.46"/>
          <polygon class="cls-113" points="29.6 14.94 14.94 29.6 14.46 29.6 29.6 14.46 29.6 14.94"/>
          <polygon class="cls-41" points="29.6 15.41 15.41 29.6 14.94 29.6 29.6 14.94 29.6 15.41"/>
          <polygon class="cls-10" points="29.6 15.88 15.88 29.6 15.41 29.6 29.6 15.41 29.6 15.88"/>
          <polygon class="cls-72" points="29.6 16.35 16.35 29.6 15.88 29.6 29.6 15.88 29.6 16.35"/>
          <polygon class="cls-108" points="29.6 16.83 16.83 29.6 16.35 29.6 29.6 16.35 29.6 16.83"/>
          <polygon class="cls-97" points="29.6 17.3 17.3 29.6 16.83 29.6 29.6 16.83 29.6 17.3"/>
          <polygon class="cls-22" points="29.6 17.77 17.77 29.6 17.3 29.6 29.6 17.3 29.6 17.77"/>
          <polygon class="cls-64" points="29.6 18.25 18.25 29.6 17.77 29.6 29.6 17.77 29.6 18.25"/>
          <polygon class="cls-28" points="29.6 18.72 18.72 29.6 18.25 29.6 29.6 18.25 29.6 18.72"/>
          <polygon class="cls-69" points="29.6 19.19 19.19 29.6 18.72 29.6 29.6 18.72 29.6 19.19"/>
          <polygon class="cls-91" points="29.6 19.67 19.67 29.6 19.19 29.6 29.6 19.19 29.6 19.67"/>
          <polygon class="cls-86" points="29.6 20.14 20.14 29.6 19.67 29.6 29.6 19.67 29.6 20.14"/>
          <polygon class="cls-29" points="29.6 20.61 20.61 29.6 20.14 29.6 29.6 20.14 29.6 20.61"/>
          <polygon class="cls-68" points="29.6 21.09 21.09 29.6 20.61 29.6 29.6 20.61 29.6 21.09"/>
          <polygon class="cls-81" points="29.6 21.56 21.56 29.6 21.09 29.6 29.6 21.09 29.6 21.56"/>
          <polygon class="cls-39" points="29.6 22.03 22.03 29.6 21.56 29.6 29.6 21.56 29.6 22.03"/>
          <polygon class="cls-2" points="29.6 22.5 22.5 29.6 22.03 29.6 29.6 22.03 29.6 22.5"/>
          <polygon class="cls-88" points="29.6 22.98 22.98 29.6 22.5 29.6 29.6 22.5 29.6 22.98"/>
          <polygon class="cls-71" points="29.6 23.45 23.45 29.6 22.98 29.6 29.6 22.98 29.6 23.45"/>
          <polygon class="cls-49" points="29.6 23.92 23.92 29.6 23.45 29.6 29.6 23.45 29.6 23.92"/>
          <polygon class="cls-106" points="29.6 24.4 24.4 29.6 23.92 29.6 29.6 23.92 29.6 24.4"/>
          <polygon class="cls-76" points="29.6 24.87 24.87 29.6 24.4 29.6 29.6 24.4 29.6 24.87"/>
          <polygon class="cls-73" points="29.6 25.34 25.34 29.6 24.87 29.6 29.6 24.87 29.6 25.34"/>
          <polygon class="cls-110" points="29.6 25.82 25.82 29.6 25.34 29.6 29.6 25.34 29.6 25.82"/>
          <polygon class="cls-90" points="29.6 26.29 26.29 29.6 25.82 29.6 29.6 25.82 29.6 26.29"/>
          <polygon class="cls-62" points="29.6 26.76 26.76 29.6 26.29 29.6 29.6 26.29 29.6 26.76"/>
          <polygon class="cls-58" points="29.6 27.24 27.24 29.6 26.76 29.6 29.6 26.76 29.6 27.24"/>
          <polygon class="cls-4" points="29.6 27.71 27.71 29.6 27.24 29.6 29.6 27.24 29.6 27.71"/>
          <polygon class="cls-57" points="29.6 28.18 28.18 29.6 27.71 29.6 29.6 27.71 29.6 28.18"/>
          <polygon class="cls-75" points="29.6 28.65 28.65 29.6 28.18 29.6 29.6 28.18 29.6 28.65"/>
          <polygon class="cls-6" points="29.6 29.13 29.13 29.6 28.65 29.6 29.6 28.65 29.6 29.13"/>
          <polygon class="cls-7" points="29.13 29.6 29.6 29.13 29.6 29.6 29.13 29.6"/>
        </g>
      </g>
    </g>
  </g>
</svg>